
<svg xmlns="http://www.w3.org/2000/svg"  viewBox="0 0 1000 566.6666666666667" style="overflow: hidden;border: 2px solid #888888;"> 
<polygon points="666,116 666,283 526,283 617,374 500,492 382,374 473,283 333,283 333,116 416,116 416,100 316,100 316,300 432,300 358,374 500,515 641,374 567,300 683,300 683,100 400,100 400,116 666,116 " style="fill:white;stroke:black;stroke-width:5;fill-rule:evenodd;" />
<polyline points="583,116 583,111 582,106 581,100 580,95 579,90 577,85 575,80 572,76 570,71 567,67 563,63 560,59 556,55 552,51 548,48 543,45 539,43 534,40 529,38 524,37 519,35 514,34 509,33 503,33 498,33 493,33 488,34 482,35 477,36 472,37 467,39 462,42 458,44 453,47 449,50 445,53 441,57 437,61 434,65 431,69 428,73 425,78 423,83 421,88 420,93 418,98 417,103 417,108 416,114 416,119 417,124 417,129 418,135 420,140 421,145 423,150 425,154 428,159 431,163 434,168 437,172 441,176 445,179 449,182 453,186 458,188 462,191 467,193 472,195 477,196 482,198 488,199 493,199 498,199 503,199 509,199 514,198 519,197 524,196 529,194 534,192 539,190 543,187 548,184 552,181 556,177 560,174 563,170 567,166 570,161 572,157 575,152 577,147 579,142 580,137 581,132 582,127 583,121 583,116 " style="fill:none;stroke:black;stroke-width:5;fill-rule:evenodd;" />
<polygon points="500,492 382,374 500,256 617,374 500,492 " style="fill:white;stroke:black;stroke-width:5;fill-rule:evenodd;" />
<polygon points="333,283 333,116 666,116 666,283 333,283 " style="fill:white;stroke:black;stroke-width:5;fill-rule:evenodd;" />

</svg>



